<?xml version="1.0" standalone="no"?><!DOCTYPE svg PUBLIC "-//W3C//DTD SVG 1.1//EN" "http://www.w3.org/Graphics/SVG/1.1/DTD/svg11.dtd"><svg t="1684582173575" class="icon" viewBox="0 0 1024 1024" version="1.1" xmlns="http://www.w3.org/2000/svg" p-id="3454" xmlns:xlink="http://www.w3.org/1999/xlink" width="128" height="128"><path d="M511.872 32c5.76-0.064 11.52 1.152 16.64 3.648l415.04 224.832a34.048 34.048 0 0 1 16.448 26.752v449.536a33.984 33.984 0 0 1-16.448 26.752l-414.976 224.832A36.16 36.16 0 0 1 512 992a36.48 36.48 0 0 1-16.512-3.648L80.576 763.392A33.728 33.728 0 0 1 64 736.64V287.168a33.728 33.728 0 0 1 16.576-26.816L495.552 35.648A35.2 35.2 0 0 1 511.872 32z m0 87.808l-371.2 195.904v391.808l371.2 196.16 371.008-196.032V315.776L511.872 119.808zM194.688 402.368L456.96 543.296a37.504 37.504 0 0 1 18.304 29.568v252.992l-262.4-140.992a37.568 37.568 0 0 1-18.176-29.44V402.304z m282.496-200.64a37.632 37.632 0 0 1 32.192 0l266.624 143.36c8.832 4.736 16 16.32 16 25.984v286.592c0 9.6-7.04 21.12-16 25.984l-236.992 127.36V536.064a32.256 32.256 0 0 0-16.128-25.792L213.312 343.68z" p-id="3455"></path></svg>