<?xml version="1.0" standalone="no"?><!DOCTYPE svg PUBLIC "-//W3C//DTD SVG 1.1//EN" "http://www.w3.org/Graphics/SVG/1.1/DTD/svg11.dtd"><svg t="1683913967963" class="icon" viewBox="0 0 1024 1024" version="1.1" xmlns="http://www.w3.org/2000/svg" p-id="2888" xmlns:xlink="http://www.w3.org/1999/xlink" width="128" height="128"><path d="M776.405333 1024H247.637333a41.173333 41.173333 0 0 1-41.045333-41.045333V591.786667c0-22.570667 18.474667-41.045333 41.045333-41.045334h49.664v-63.232c0-118.4 96.341333-214.698667 214.698667-214.698666s214.698667 96.341333 214.698667 214.698666v63.232h49.664c22.570667 0 41.045333 18.474667 41.045333 41.045334v391.168a41.173333 41.173333 0 0 1-41.045333 41.045333z m-237.610666-216.405333A54.357333 54.357333 0 0 0 512 705.877333a54.4 54.4 0 0 0-26.794667 101.717334v52.992a26.794667 26.794667 0 1 0 53.589334 0v-52.992z m-118.357334-256.853334h183.168v-63.232c0-50.474667-41.088-91.562667-91.562666-91.562666s-91.562667 41.088-91.562667 91.562666v63.232z m-226.432-58.282666h-127.573333a37.461333 37.461333 0 1 1 0-74.922667h127.573333a37.461333 37.461333 0 1 1 0 74.922667z m89.898667-200.704a37.12 37.12 0 0 1-23.765333-8.533334L159.232 200.234667a37.461333 37.461333 0 1 1 47.616-57.898667l100.906667 82.986667a37.461333 37.461333 0 0 1-23.850667 66.389333zM512 203.52a37.461333 37.461333 0 0 1-37.461333-37.461333V37.461333a37.461333 37.461333 0 1 1 74.922666 0v128.597334A37.461333 37.461333 0 0 1 512 203.52z m228.096 88.234667a37.418667 37.418667 0 0 1-23.850667-66.389334l100.906667-82.986666a37.461333 37.461333 0 0 1 47.616 57.898666l-100.906667 82.986667a37.376 37.376 0 0 1-23.765333 8.533333z m217.472 200.704h-128.810667a37.461333 37.461333 0 1 1 0-74.922667h128.810667a37.461333 37.461333 0 1 1 0 74.922667z" p-id="2889"></path></svg>