<?xml version="1.0" standalone="no"?><!DOCTYPE svg PUBLIC "-//W3C//DTD SVG 1.1//EN" "http://www.w3.org/Graphics/SVG/1.1/DTD/svg11.dtd"><svg t="1683277238822" class="icon" viewBox="0 0 1024 1024" version="1.1" xmlns="http://www.w3.org/2000/svg" p-id="2809" xmlns:xlink="http://www.w3.org/1999/xlink" width="128" height="128"><path d="M910.2336 0H113.7664A113.7664 113.7664 0 0 0 0 113.7664v796.4672C0 973.056 50.944 1024 113.7664 1024h796.4672A113.7664 113.7664 0 0 0 1024 910.2336V113.7664A113.7664 113.7664 0 0 0 910.2336 0zM378.368 735.232c-28.416 21.6576-70.1952 32.4608-125.2352 32.4608-14.6432 0-29.0304-0.5632-43.4176-1.6896-14.336-1.1776-27.6992-2.6624-40.2944-4.4544a558.336 558.336 0 0 1-33.4336-5.8368 153.088 153.088 0 0 1-23.552-6.5024v-56.6272c6.8608 2.7648 15.5136 5.376 25.9584 7.8848 10.496 2.4576 21.8112 4.7616 34.1504 6.7584 12.288 2.0992 25.2416 3.6864 38.912 4.7616 13.6704 1.1776 27.5456 1.792 41.6768 1.792 35.4816 0 62.3104-5.9392 80.5376-17.7664 18.176-11.8272 27.2896-32.5632 27.2896-62.1056 0-14.592-1.4848-26.7776-4.4544-36.5568a50.688 50.688 0 0 0-16.7424-24.8832 108.544 108.544 0 0 0-33.4336-17.8176c-14.1312-4.9664-32.3072-10.24-54.5792-15.6672a553.2672 553.2672 0 0 1-61.44-18.432 123.0336 123.0336 0 0 1-40.96-24.2176 85.76 85.76 0 0 1-22.8864-35.84c-4.8128-14.1312-7.168-31.6416-7.168-52.5824 0-43.2128 12.8512-75.4688 38.6048-96.5632 25.6512-21.248 65.3824-31.744 119.0912-31.744a491.4176 491.4176 0 0 1 67.8912 5.12c10.752 1.536 20.48 3.3792 29.3888 5.376 8.9088 2.1504 16.0768 4.2496 21.504 6.5536v55.9616a319.7952 319.7952 0 0 0-53.248-13.312 370.2784 370.2784 0 0 0-64.8704-5.7856c-16.384 0-30.72 1.024-43.008 3.072-12.288 2.048-22.528 5.7344-30.72 11.264a48.128 48.128 0 0 0-18.0736 22.528c-3.84 9.5232-5.7856 22.0672-5.7856 37.5296 0 10.9056 1.024 20.3776 3.072 28.3136 2.048 7.9872 6.4512 14.848 13.312 20.8384 6.8096 5.9392 16.5888 11.264 29.3376 16.0768a429.568 429.568 0 0 0 51.2 14.6432c26.4192 6.4 48.7936 13.1072 67.2256 20.1216 18.432 7.1168 33.3312 16.0256 44.7488 26.9824 11.3664 10.9056 19.5584 24.2176 24.576 39.936 5.0176 15.7184 7.5264 35.1744 7.5264 58.368 0 46.4384-14.336 80.4864-42.7008 102.0416z m269.312 26.3168c-6.8096 0.8192-13.6192 1.6384-20.48 2.3552a189.44 189.44 0 0 1-21.1456 1.024c-20.48 0-37.6832-1.4848-51.5584-4.4032a67.84 67.84 0 0 1-34.1504-17.408c-8.8576-8.704-15.2064-20.6336-19.1488-35.8912-3.7888-15.2064-5.7344-34.8672-5.7344-58.9824V441.344H440.832v-49.152h54.6304V304.896h58.7264V392.192h91.4432v49.1008h-91.4432v203.4176c0 14.592 0.6656 26.4704 2.048 35.5328a47.104 47.104 0 0 0 7.8336 21.504c3.84 5.2224 9.216 8.8576 16.0256 10.9056 6.8096 2.048 15.872 3.072 27.2896 3.072a178.7392 178.7392 0 0 0 40.2944-4.096v49.8688z m109.8752-282.0096c-8.192 10.496-14.7968 23.9104-19.7632 40.3456v240.9472h-58.7264v-368.64h58.7264v66.9184c5.888-15.4624 13.2096-28.0064 21.8112-37.5296a103.5776 103.5776 0 0 1 61.8496-33.4848 222.208 222.208 0 0 1 33.792-2.7136h6.8096l-2.048 53.248h-8.192a180.224 180.224 0 0 0-34.816 3.3792 99.4304 99.4304 0 0 0-32.1024 12.6464c-9.984 6.144-19.0976 14.4384-27.3408 24.8832z m125.9008 277.9136c-6.8608 4.9664-18.0224 7.4752-33.4336 7.4752-15.9744 0-27.2384-2.5088-33.8432-7.4752-6.656-5.0176-9.8816-17.1008-9.8816-36.2496 0-18.1248 3.2768-29.7472 9.8816-34.7648 6.6048-5.0176 17.92-7.5264 33.792-7.5264 15.4624 0 26.624 2.56 33.4848 7.5264 6.7584 5.0176 10.24 16.64 10.24 34.816 0 19.0976-3.4816 31.232-10.24 36.1984z" p-id="2810"></path></svg>